<?xml version="1.0" encoding="UTF-8"?> <svg xmlns="http://www.w3.org/2000/svg" id="Capa_1" height="512px" viewBox="0 0 511.882 511.882" width="512px"><g><path d="m115.941 275.941c-5.522 0-10 4.478-10 10v160c0 5.522 4.478 10 10 10s10-4.478 10-10v-30h260v30c0 5.522 4.478 10 10 10s10-4.478 10-10c0-31.45 0-68.003 0-100 0-27.57-22.43-50-50-50h-140c-5.522 0-10 4.478-10 10v50h-80v-70c0-5.523-4.478-10-10-10zm110 40h130c16.542 0 30 13.458 30 30v50h-160zm-20 60v20h-80v-20z" fill="#DF4417"></path><path d="m255.941 275.941c38.598 0 70-31.402 70-70s-31.402-70-70-70-70 31.402-70 70 31.402 70 70 70zm0-120c27.57 0 50 22.43 50 50s-22.43 50-50 50-50-22.43-50-50 22.43-50 50-50z" fill="#DF4417"></path><path d="m507.779 197.454-61.838-45.154v-96.36h10c5.522 0 10-4.478 10-10s-4.478-10-10-10h-100c-5.522 0-10 4.478-10 10s4.478 10 10 10h10v37.942l-104.103-76.017c-3.514-2.564-8.281-2.564-11.795 0l-245.94 179.589c-4.454 3.253-5.434 9.498-2.189 13.958l23.53 32.351c3.245 4.462 9.513 5.467 13.997 2.186l26.5-19.414v259.406c0 5.522 4.478 10 10 10h135c5.522 0 10-4.478 10-10s-4.478-10-10-10h-125v-264.059l170-124.545 170 124.545v264.059h-125c-5.522 0-10 4.478-10 10s4.478 10 10 10h135c5.522 0 10-4.478 10-10v-259.407l26.5 19.414c4.483 3.283 10.754 2.274 13.997-2.186l23.53-32.351c3.244-4.459 2.265-10.704-2.189-13.957zm-121.838-141.513h40v81.756l-40-29.209zm90.226 167.943-214.316-157.01c-1.76-1.289-3.835-1.934-5.91-1.934s-4.15.645-5.91 1.934l-214.316 157.01-11.756-16.164 231.982-169.396c10.979 8.017 223.063 162.883 231.982 169.396z" fill="#DF4417"></path><path d="m268.87 233.012c3.907 3.905 10.236 3.904 14.143 0 3.905-3.905 3.905-10.237 0-14.143l-17.071-17.071v-15.857c0-5.522-4.478-10-10-10s-10 4.478-10 10v20c0 2.652 1.054 5.195 2.929 7.071z" fill="#DF4417"></path><path d="m205.941 325.941c0-16.542-13.458-30-30-30s-30 13.458-30 30 13.458 30 30 30 30-13.458 30-30zm-30 10c-5.514 0-10-4.486-10-10s4.486-10 10-10 10 4.486 10 10-4.486 10-10 10z" fill="#DF4417"></path><circle cx="255.941" cy="485.941" r="10" fill="#DF4417"></circle></g></svg> 