<?xml version="1.0" encoding="UTF-8"?> <svg xmlns="http://www.w3.org/2000/svg" id="Capa_1" height="512px" viewBox="0 0 512 512" width="512px"><path d="m240 73c0 5.523 4.477 10 10 10h192c5.523 0 10-4.477 10-10s-4.477-10-10-10h-192c-5.523 0-10 4.477-10 10z" fill="#DF4417"></path><path d="m442 123h-132c-5.523 0-10 4.477-10 10s4.477 10 10 10h132c5.523 0 10-4.477 10-10s-4.477-10-10-10z" fill="#DF4417"></path><circle cx="316" cy="10" r="10" fill="#DF4417"></circle><path d="m502 0h-141c-5.523 0-10 4.477-10 10s4.477 10 10 10h131v196h-116v-20c0-5.523-4.477-10-10-10s-10 4.477-10 10v20h-106v-20c0-51.765-39.538-94.468-90-99.501v-76.499h111c5.523 0 10-4.477 10-10s-4.477-10-10-10h-121c-5.523 0-10 4.477-10 10v86.499c-50.462 5.033-90 47.736-90 99.501v21.266c-17.233 4.451-30 20.13-30 38.734 0 21.539 17.113 39.157 38.456 39.971 10.114 23.264 28.428 41.635 51.544 51.71v18.319h-40c-38.598 0-70 31.402-70 70v66c0 5.523 4.477 10 10 10h230c5.523 0 10-4.477 10-10v-56h86c38.598 0 70-31.402 70-70v-50c0-18.604-12.767-34.282-30-38.734v-51.266h126c5.523 0 10-4.477 10-10v-216c0-5.523-4.477-10-10-10zm-352 116c44.112 0 80 35.888 80 80h-50c-11.028 0-20-8.972-20-20 0-5.523-4.477-10-10-10s-10 4.477-10 10c0 11.028-8.972 20-20 20h-50c0-44.112 35.888-80 80-80zm-75.304 166.66c-1.415-3.992-5.19-6.66-9.426-6.66h-5.27c-11.028 0-20-8.972-20-20s8.972-20 20-20c5.523 0 10-4.477 10-10v-10h50c11.934 0 22.665-5.254 30-13.57 7.335 8.316 18.066 13.57 30 13.57h50v10c0 5.523 4.477 10 10 10 11.028 0 20 8.972 20 20s-8.972 20-20 20h-5.27c-4.235 0-8.011 2.668-9.426 6.66-8.135 22.958-25.862 40.743-48.636 48.791-3.996 1.413-6.668 5.19-6.668 9.429v35.12c0 11.028-8.972 20-20 20s-20-8.972-20-20v-35.12c0-4.238-2.672-8.016-6.668-9.429-22.774-8.048-40.501-25.832-48.636-48.791zm165.304 143.34c-5.523 0-10 4.477-10 10v56h-150v-26c0-5.523-4.477-10-10-10s-10 4.477-10 10v26h-40v-56c0-27.57 22.43-50 50-50h41.266c4.452 17.233 20.13 30 38.734 30s34.282-12.767 38.734-30h107.266v40zm146-100v50c0 27.57-22.43 50-50 50h-20v-40h20c5.523 0 10-4.477 10-10v-50c0-11.028 8.972-20 20-20s20 8.972 20 20zm-30-38.734c-17.233 4.452-30 20.13-30 38.734v40h-136v-18.319c23.116-10.075 41.43-28.447 51.544-51.71 21.343-.814 38.456-18.432 38.456-39.971 0-7.282-1.963-14.112-5.378-20h81.378z" fill="#DF4417"></path></svg> 