<?xml version="1.0" encoding="UTF-8"?> <!-- Generator: Adobe Illustrator 19.0.0, SVG Export Plug-In . SVG Version: 6.00 Build 0) --> <svg xmlns="http://www.w3.org/2000/svg" xmlns:xlink="http://www.w3.org/1999/xlink" version="1.1" id="Capa_1" x="0px" y="0px" viewBox="0 0 512 512" style="enable-background:new 0 0 512 512;" xml:space="preserve" width="512px" height="512px"> <g> <g> <path d="M206.949,177.548c-5.519,0-9.998,4.469-9.998,9.998c0,5.518,4.479,9.998,9.998,9.998s9.998-4.479,9.998-9.998 C216.947,182.017,212.468,177.548,206.949,177.548z" fill="#DF4417"></path> </g> </g> <g> <g> <path d="M511.951,109.921c0-29.378-11.442-56.995-32.217-77.765c-42.874-42.874-112.644-42.875-155.531,0.002L304.199,52.17 c-31.067-25.862-67.492-45.641-83.895-29.222c-4.003,4.003-8.102,11.674-4.899,25.474c1.255,5.414,1.892,11.056,1.892,16.768 c0,19.315-7.26,39.628-20.445,57.198c-13.854,18.472-28.734,35.969-47.506,55.822l-15.094-15.089 c5.31-11.148,3.362-24.918-5.855-34.137c-11.693-11.693-30.721-11.693-42.413,0c-11.721,11.724-11.725,30.701,0,42.423 c9.411,9.413,23.226,11.092,34.142,5.867l15.342,15.336c-10.921,11.149-22.435,22.543-35.423,35.389 c-2.316,2.291-4.665,4.615-7.049,6.975L77.693,219.67c5.309-11.146,3.361-24.913-5.853-34.128 c-11.694-11.692-30.721-11.693-42.414,0c-11.693,11.693-11.693,30.72-0.004,42.41c9.404,9.414,23.22,11.109,34.148,5.874 l15.233,15.233c-8.761,8.724-19.278,19.27-30.849,31.105L7.838,293.536c-3.287,1.097-5.772,3.815-6.569,7.187 c-0.797,3.372,0.21,6.917,2.659,9.366l21.536,21.536c-35.999,43.163-33.757,107.643,6.74,148.141 c42.972,42.972,112.541,42.99,155.536-0.007l39.649-39.722c2.323,0.328,4.656,0.505,6.98,0.505 c13.111,0,25.947-5.154,35.419-14.635l56.557-56.549c9.438-9.436,14.637-21.989,14.637-35.345c0-2.373-0.181-4.733-0.511-7.065 l22.439-22.439c1.428,2.999,3.376,5.81,5.855,8.289c11.722,11.72,30.701,11.724,42.425-0.001l42.401-42.411 c11.75-11.722,11.722-30.738,0.009-42.423c-2.479-2.479-5.289-4.425-8.286-5.853l34.42-34.425 C500.508,166.916,511.951,139.299,511.951,109.921z M114.258,157.27c-3.905,3.905-10.227,3.909-14.136,0 c-3.908-3.908-3.906-10.237,0.001-14.144c3.896-3.896,10.237-3.899,14.135-0.001C118.157,147.025,118.157,153.371,114.258,157.27z M57.704,213.813c-0.002,0.001-0.003,0.003-0.005,0.004c-0.002,0.002-0.004,0.005-0.007,0.007 c-3.885,3.888-10.197,3.928-14.128-0.005c-3.896-3.897-3.896-10.239-0.001-14.136c3.895-3.893,10.239-3.899,14.136,0 C61.594,203.578,61.595,209.916,57.704,213.813z M212.846,134.388c15.765-21.008,24.446-45.583,24.446-69.198 c0-7.229-0.81-14.391-2.408-21.286c-1.026-4.42-0.565-6.321-0.396-6.807c4.545-2.087,28.583,5.176,63.599,36.175 c4.812,4.266,9.562,8.738,14.119,13.296c4.635,4.634,9.109,9.385,13.302,14.123c31.014,35.024,38.267,59.056,36.175,63.603 c-0.484,0.169-2.386,0.63-6.805-0.396c-29.653-6.882-62.636,1.145-90.492,22.025c-54.3,40.727-95.792,87.885-154.346,145.451 l-42.565-42.564C130.992,224.193,172.6,188.05,212.846,134.388z M184.971,397.625L145.32,437.34 c-19.494,19.487-51.212,19.484-70.704,0.001c-17.244-17.244-19.129-43.696-6.359-62.923l20.506,20.506 c1.897,1.896,4.449,2.927,7.069,2.927c0.766,0,1.536-0.088,2.299-0.268c3.371-0.797,6.091-3.281,7.187-6.569l13.37-40.114 c11.82-11.558,22.369-22.084,31.099-30.858l42.964,42.966C186.058,373.158,183.256,385.508,184.971,397.625z M163.868,305.848 c2.851-2.881,5.653-5.717,8.401-8.498c10.751-10.88,20.905-21.157,30.661-30.79c1.082-1.069,2.172-2.142,3.269-3.218 l42.381,42.387l-42.411,42.42L163.868,305.848z M220.587,249.453c19.869-18.814,37.357-33.701,55.795-47.53 c23.121-17.331,50.088-24.092,73.977-18.545c13.802,3.2,21.473-0.897,25.474-4.899c16.423-16.42-3.36-52.841-29.219-83.897 l20.012-20.012c19.49-19.488,51.203-19.49,70.693,0c19.489,19.488,19.488,51.206,0,70.702L298.051,284.54 c-12.11-1.712-24.456,1.089-34.608,7.775L220.587,249.453z M50.71,300.323l47.82,47.82l-7.068,21.205l-61.957-61.957 L50.71,300.323z M173.595,465.626c-35.162,35.165-92.086,35.167-127.251,0c-32.695-32.694-34.906-84.488-6.664-119.785 l14.236,14.237c-20.463,27.24-18.524,66.319,6.564,91.405c27.286,27.276,71.687,27.279,98.986-0.007l33.286-33.339 c1.844,2.783,3.963,5.391,6.342,7.765c2.387,2.391,5.004,4.517,7.799,6.366L173.595,465.626z M312.206,355.219l-56.561,56.551 c-7.546,7.552-18.648,10.526-28.977,7.766c-0.001-0.001-0.003-0.001-0.005-0.002c-5.057-1.35-9.696-4.032-13.431-7.773 c-3.728-3.72-6.411-8.359-7.762-13.424c-2.761-10.325,0.213-21.424,7.763-28.973c0.002-0.002,0.004-0.003,0.006-0.005 c0.003-0.003,0.006-0.007,0.009-0.01l56.535-56.545c5.691-5.686,13.393-8.775,21.264-8.775c2.583,0,5.186,0.333,7.738,1.017 c5.051,1.346,9.691,4.027,13.42,7.756c3.729,3.728,6.412,8.369,7.762,13.438c0.675,2.515,1.018,5.131,1.018,7.775 C320.985,342.029,317.868,349.558,312.206,355.219z M439.458,256.24l-42.41,42.421c-3.907,3.905-10.237,3.906-14.144-0.001 c-3.899-3.899-3.899-10.245-0.001-14.143l42.421-42.411c0-0.001,0-0.001,0-0.001c3.887-3.887,10.23-3.906,14.144,0.009 C443.346,245.98,443.393,252.316,439.458,256.24z M332.695,306.445c-1.845-2.788-3.966-5.401-6.35-7.785 c-2.383-2.384-4.997-4.505-7.784-6.35l132.901-132.901c27.283-27.294,27.282-71.696-0.001-98.979 c-27.287-27.285-71.685-27.283-98.973,0l-19.174,19.175c-2.276-2.411-4.602-4.809-6.969-7.176 c-2.346-2.345-4.742-4.669-7.169-6.959l19.165-19.173c35.088-35.081,92.173-35.079,127.253,0 c16.998,16.994,26.359,39.59,26.359,63.625s-9.361,46.631-26.361,63.627C458.635,180.506,339.61,299.529,332.695,306.445z" fill="#DF4417"></path> </g> </g> <g> <g> <path d="M267.242,75.476c-5.444-0.841-10.563,2.898-11.405,8.356c-3.378,21.893-12.711,43.527-26.99,62.561 c-3.315,4.417-2.42,10.684,1.997,13.997c4.408,3.307,10.676,2.43,13.997-1.998c16.245-21.653,26.881-46.382,30.758-71.512 C276.441,81.424,272.7,76.318,267.242,75.476z" fill="#DF4417"></path> </g> </g> <g> </g> <g> </g> <g> </g> <g> </g> <g> </g> <g> </g> <g> </g> <g> </g> <g> </g> <g> </g> <g> </g> <g> </g> <g> </g> <g> </g> <g> </g> </svg> 